<?xml version="1.0" encoding="UTF-8" standalone="no"?>
<!-- Generator: Adobe Illustrator 17.0.1, SVG Export Plug-In . SVG Version: 6.00 Build 0)  -->

<svg
   version="1.1"
   x="0px"
   y="0px"
   width="86px"
   height="86px"
   viewBox="0 0 86 86"
   enable-background="new 0 0 86 86"
   xml:space="preserve"
   id="svg3"
   sodipodi:docname="harbour-dreamcastnow-client.svg"
   inkscape:version="1.4.2 (ebf0e940d0, 2025-05-08)"
   inkscape:export-filename="../icons/128x128/harbour-dreamcastnow-client.png"
   inkscape:export-xdpi="143.8876"
   inkscape:export-ydpi="143.8876"
   xmlns:inkscape="http://www.inkscape.org/namespaces/inkscape"
   xmlns:sodipodi="http://sodipodi.sourceforge.net/DTD/sodipodi-0.dtd"
   xmlns:xlink="http://www.w3.org/1999/xlink"
   xmlns="http://www.w3.org/2000/svg"
   xmlns:svg="http://www.w3.org/2000/svg"><defs
   id="defs3"><linearGradient
   id="linearGradient4"
   inkscape:collect="always"><stop
     style="stop-color:#ff009c;stop-opacity:1;"
     offset="0"
     id="stop4" /><stop
     style="stop-color:#f92222;stop-opacity:1;"
     offset="0.62227583"
     id="stop5" /></linearGradient>
	<linearGradient
   id="SVGID_1_"
   gradientUnits="userSpaceOnUse"
   x1="12.8064"
   y1="73.1937"
   x2="73.1934"
   y2="12.8067">
		<stop
   offset="0"
   style="stop-color:#e33434;stop-opacity:1;"
   id="stop1" />
		<stop
   offset="1"
   style="stop-color:#ff9a57;stop-opacity:1;"
   id="stop2" />
	</linearGradient>
	
	
	

		
		
		
	
	
	
<linearGradient
   inkscape:collect="always"
   xlink:href="#linearGradient4"
   id="linearGradient5"
   x1="23.641724"
   y1="34.225279"
   x2="73.255724"
   y2="34.225279"
   gradientUnits="userSpaceOnUse"
   gradientTransform="matrix(0.9,0,0,0.9,1.3961484,8.197249)" /></defs><sodipodi:namedview
   id="namedview3"
   pagecolor="#ffffff"
   bordercolor="#000000"
   borderopacity="0.25"
   inkscape:showpageshadow="2"
   inkscape:pageopacity="0.0"
   inkscape:pagecheckerboard="0"
   inkscape:deskcolor="#d1d1d1"
   inkscape:zoom="8.1934755"
   inkscape:cx="41.130287"
   inkscape:cy="41.862577"
   inkscape:window-width="1536"
   inkscape:window-height="955"
   inkscape:window-x="0"
   inkscape:window-y="0"
   inkscape:window-maximized="1"
   inkscape:current-layer="svg3" />

<circle
   fill="url(#SVGID_1_)"
   cx="43"
   cy="43"
   r="42.700001"
   id="circle2"
   style="display:inline;fill:url(#SVGID_1_)" /><circle
   opacity="0.9"
   fill="#f9f8d9"
   cx="43"
   cy="43"
   r="32.025002"
   id="circle3"
   style="display:inline" /><path
   id="path8-6"
   style="display:inline;fill:#4365a2;fill-opacity:1;stroke-width:0.1"
   d="m 41.027344,15.796875 c -1.33374,-0.08051 -2.618937,0.325727 -3.886719,0.404297 -0.666385,0.258503 -2.518752,0.518831 -3.845703,0.992187 -2.296459,0.955444 -3.139691,1.345695 -5.453125,2.498047 -1.154292,0.852139 -2.201087,1.1958 -3.414063,2.132813 -0.73186,0.274023 -1.43092,1.071275 -1.541015,1.140625 -1.058262,0.936044 -1.605929,1.082977 -2.539063,2.015625 -0.394787,0.453472 -1.55257,1.761504 -1.960937,2.30664 -1.430255,1.758598 -2.361499,3.771617 -3.251953,5.521485 -0.617885,1.122767 -0.735629,1.950165 -1.208985,2.955078 -0.156169,0.610126 -0.74363,1.981604 -0.8125,2.4375 -0.07032,1.065538 -0.366259,1.557302 -0.589843,2.736328 -0.254628,1.396791 -0.0591,2.607324 -0.205079,3.890625 0.09991,0.574721 0.21223,1.61334 0.1875,2.054687 0.214853,1.874997 0.765879,3.077591 1.091797,4.945313 0.308943,0.800244 0.833721,2.672109 1.587891,4.220703 0.283723,0.915674 1.593284,3.006669 1.957031,3.703125 1.660144,2.254264 4.229949,4.671808 5.378906,5.382813 0.284693,0.275963 1.962859,1.423596 2.462891,1.677734 0.76872,0.413703 2.600647,1.182091 3.546875,1.537109 1.714948,0.526706 4.619238,1.342667 7.517578,1.6875 2.897855,0.344348 5.553142,0.115572 8.136719,-0.123047 1.333741,-0.275963 2.570616,-0.690611 3.552734,-1.005859 2.411888,-0.942834 3.720639,-1.598262 5.441407,-2.625 1.26681,-0.756595 1.970886,-1.155514 2.791015,-1.839844 1.072328,-0.870569 2.000053,-1.672048 2.873047,-2.707031 2.055415,-2.337199 3.096315,-4.763467 3.691406,-6.751953 0.267233,-1.066508 0.720253,-4.542288 0.4375,-6.244141 -0.168294,-1.984121 -0.555254,-4.106245 -0.783203,-5.230468 -0.254623,-1.091242 -0.365316,-1.94698 -0.59375,-2.914063 -0.177508,-0.609641 -0.454712,-1.654316 -0.544922,-2.017578 -0.194968,-0.725555 -1.418745,-3.330908 -1.605469,-3.597656 -1.029648,-1.590304 -1.839503,-2.885296 -3.519531,-4.117188 -0.656686,-0.60673 -1.651229,-1.352816 -2.496093,-1.898437 -1.026253,-0.620311 -1.749195,-1.178146 -3,-1.527344 -1.169812,-0.326403 -2.161128,-0.744236 -3.890626,-0.974609 -0.931193,-0.169749 -2.825222,-0.578694 -4.126953,-0.589844 -2.89349,-0.04607 -3.811721,-0.30358 -6.86914,0.941406 -2.460387,1.168842 -4.279397,2.104277 -6.457031,3.875 -0.854564,0.612065 -1.493735,1.478886 -2.371094,2.542969 -0.581996,0.69015 -0.911373,1.298096 -1.595703,2.271484 -0.380722,0.496152 -0.710842,1.440767 -1.273438,2.5 -0.998124,2.660691 -1.111063,6.806498 -0.927734,7.794922 0.162474,0.881723 0.282891,2.16942 0.52539,2.744141 0.178478,0.422918 0.396214,2.43735 1.509766,4.578125 0.223583,0.302638 0.985737,1.782376 1.763672,2.597656 1.400185,1.483119 3.241098,2.700475 4.882812,3.390625 2.405098,1.060688 6.444077,1.323178 7.919922,0.953125 1.499124,-0.223583 2.413347,-0.241474 3.605469,-0.712891 1.099972,-0.305547 1.942401,-0.695174 2.666016,-1.035156 0.824494,-0.414188 1.35691,-0.663402 2.146484,-1.142578 0.556291,-0.289058 1.238288,-0.782502 1.671875,-1.183594 1.076207,-0.79491 1.794273,-1.850606 2.203125,-2.71875 0.120895,-0.256754 0.22368,-0.49533 0.3125,-0.720703 l -4.146484,-1.33789 c -0.132312,0.484856 -0.288594,0.880374 -0.408204,1.03125 -0.523795,0.660564 -1.677734,1.564453 -1.677734,1.564453 -0.83953,0.620311 -1.656111,0.822143 -2.861328,1.380859 -1.342955,0.583451 -1.583533,0.591474 -2.886719,0.904297 -0.64262,0.154229 -1.873382,0.228712 -2.355469,0.257812 -0.979692,-0.0019 -2.750763,-0.09961 -3.800781,-0.675781 -1.170782,-0.336103 -2.735948,-1.202273 -3.544922,-2.085937 -1.096577,-1.061657 -1.745954,-2.102557 -2.085937,-2.826172 -0.08293,-0.177509 -0.687388,-1.404405 -0.742188,-1.636719 -0.05481,-0.232798 -0.305855,-1.391693 -0.40625,-1.765625 -0.100879,-0.373448 -0.355468,-2.081024 -0.355468,-3.013672 -0.08536,-1.223647 0.09658,-3.123894 0.658203,-4.474609 0.517977,-1.357991 1.288877,-2.616743 1.982422,-3.560547 0.506337,-0.57666 0.952964,-1.560071 1.578125,-2.138672 0.783269,-0.734285 1.360658,-1.074789 2.126953,-1.519531 1.646078,-1.008308 2.23942,-1.368088 3.849609,-1.933594 0.550471,-0.193513 2.048314,-0.500762 2.69336,-0.613281 1.874512,-0.13725 2.192459,-0.267169 4.15039,-0.0625 0.917129,0.167324 2.361932,0.503964 3.244141,0.800781 3.133563,1.233347 5.39116,3.206835 6.11914,4.042969 1.175147,1.348776 2.742379,3.236949 3.275391,5.27539 0.566961,1.810492 0.934649,3.224207 1.378906,5.111329 0.328828,1.394851 0.241444,2.661096 0.492188,4.097656 0.0839,0.264323 0.19366,1.821984 0.09375,2.285156 -0.105729,1.598549 -0.01988,1.526305 -0.576172,3.03125 -0.465112,1.017523 -0.738577,1.840734 -1.214844,2.621094 -0.442802,0.561141 -0.897446,1.194703 -1.183594,1.609375 -0.514097,0.73574 -0.925005,1.078239 -1.603515,1.671875 -0.470447,0.489846 -0.948249,0.686551 -1.742188,1.195312 -0.410792,0.341923 -1.729486,1.119437 -2.59375,1.595703 0.02473,-0.02716 -2.127847,0.946045 -3.990234,1.63086 -1.720768,0.633406 -4.557879,0.913307 -6.615235,0.873047 -1.955506,-0.03783 -3.985552,-0.223564 -5.529296,-0.501954 -0.905489,-0.240072 -4.035094,-1.078643 -5.035157,-1.58789 -3.548235,-1.596608 -6.733349,-3.81098 -9.105468,-8.921875 -0.521856,-0.706155 -1.365001,-3.747654 -1.546875,-4.626953 -0.212428,-1.272632 -0.722716,-2.350381 -0.728516,-3.90625 -0.158599,-1.728043 0.0256,-2.165197 -0.01563,-4.279297 -0.09166,-1.179997 0.453103,-3.609409 0.738281,-4.912109 0.417582,-1.283301 1.452845,-3.100244 1.988282,-4.275391 1.209096,-2.375028 2.08658,-3.380364 3.839843,-5.253906 1.739683,-1.654809 4.361801,-3.593332 6.089844,-4.541016 1.605824,-0.943318 3.245286,-1.720541 4.423828,-2.201172 1.459354,-0.558231 3.080173,-0.667894 4.103516,-0.945312 2.701431,-0.315732 3.700627,-0.129376 5.783203,0.01758 1.686818,0.118824 2.855771,0.398322 4.630859,0.597656 1.308036,0.174114 3.412511,0.793077 3.904297,0.953125 1.54326,0.471417 3.682304,1.386784 5.00586,2.189453 1.431225,0.956414 2.94151,2.300155 3.75,3.289063 0.918097,1.177087 2.456779,2.982195 3.933593,5.255859 l 0.835938,1.412109 c 1.064083,1.604854 1.355099,3.835594 2.021484,5.371094 0.854564,1.899731 0.750234,3.559189 1.505859,4.728516 0.546107,0.844864 1.704286,1.424243 2.957032,1.125 1.253232,-0.299243 1.193857,-2.435582 1.123047,-3.017578 l -0.751953,-3.365235 c -0.344348,-1.909431 -0.423243,-2.571619 -1.5625,-4.855469 -1.019949,-2.044261 -2.22127,-4.264494 -3.242188,-5.755859 -0.64165,-0.903549 -1.647606,-2.369819 -2.173828,-3.046875 -0.540286,-0.695 -1.936133,-2.076324 -2.59961,-2.603516 -1.40261,-1.115006 -5.373504,-3.439634 -7.820312,-4.1875 -1.214432,-0.371507 -3.543765,-1.167357 -5.824219,-1.509765 -1.795457,-0.389452 -3.11871,-0.439393 -4.136719,-0.501953 -1.504459,-0.136773 -3.014533,-0.244529 -4.511718,-0.230469 z" />
<path
   id="path12"
   style="display:inline;fill:#4365a2;fill-opacity:1;stroke-width:0.1"
   d="m 58.246094,53.751953 4.046875,1.986328 c 0.08784,-0.257101 0.168922,-0.509093 0.242187,-0.753906 0.267233,-1.066508 0.720253,-4.542288 0.4375,-6.244141 -0.168294,-1.984121 -0.555254,-4.106245 -0.783203,-5.230468 -0.254623,-1.091242 -0.365316,-1.94698 -0.59375,-2.914063 -0.177508,-0.609641 -0.454712,-1.654316 -0.544922,-2.017578 -0.194968,-0.725555 -1.418745,-3.330908 -1.605469,-3.597656 -1.029648,-1.590304 -1.839503,-2.885296 -3.519531,-4.117188 -0.656686,-0.60673 -1.65123,-1.352816 -2.496093,-1.898437 -1.026253,-0.620311 -1.749195,-1.178146 -3,-1.527344 -1.169813,-0.326403 -2.161127,-0.744236 -3.890626,-0.974609 -0.931193,-0.169749 -2.825222,-0.578694 -4.126953,-0.589844 -2.89349,-0.04607 -3.811721,-0.30358 -6.86914,0.941406 -2.460387,1.168842 -4.279397,2.104277 -6.457031,3.875 -0.854564,0.612065 -1.493735,1.478886 -2.371094,2.542969 -0.581996,0.69015 -0.911373,1.298096 -1.595703,2.271484 -0.264477,0.344663 -0.503919,0.906689 -0.814453,1.572266 l 3.642578,1.789062 c 0.466939,-0.967423 1.028419,-1.849152 1.546875,-2.554687 0.506337,-0.57666 0.952964,-1.560071 1.578125,-2.138672 0.783269,-0.734285 1.360658,-1.074789 2.126953,-1.519531 1.646078,-1.008308 2.23942,-1.368088 3.849609,-1.933594 0.550471,-0.193513 2.048313,-0.500762 2.69336,-0.613281 1.874512,-0.13725 2.192459,-0.267169 4.15039,-0.0625 0.917129,0.167324 2.361932,0.503964 3.244141,0.800781 3.133563,1.233347 5.39116,3.206835 6.11914,4.042969 1.175147,1.348776 2.742379,3.236949 3.275391,5.27539 0.566961,1.810492 0.934649,3.224207 1.378906,5.111329 0.328828,1.394851 0.241444,2.661096 0.492188,4.097656 0.0839,0.264323 0.19366,1.821984 0.09375,2.285156 -0.07724,1.167871 -0.05216,1.444859 -0.25,2.095703 z" /><path
   id="path10"
   style="display:inline;fill:#4365a2;fill-opacity:1;stroke-width:0.1"
   d="m 41.027344,15.796875 c -1.33374,-0.08051 -2.618937,0.325727 -3.886719,0.404297 -0.666385,0.258503 -2.518752,0.518831 -3.845703,0.992187 -2.296459,0.955444 -3.139691,1.345695 -5.453125,2.498047 -1.154292,0.852139 -2.201087,1.1958 -3.414063,2.132813 -0.73186,0.274023 -1.43092,1.071275 -1.541015,1.140625 -1.058262,0.936044 -1.605929,1.082977 -2.539063,2.015625 -0.394787,0.453472 -1.55257,1.761504 -1.960937,2.30664 -1.378975,1.695546 -2.292381,3.627351 -3.154297,5.332032 l 3.730469,1.832031 c 0.291062,-0.576666 0.57281,-1.12494 0.779297,-1.578125 1.209095,-2.375028 2.08658,-3.380364 3.839843,-5.253906 1.739683,-1.654809 4.361801,-3.593332 6.089844,-4.541016 1.605824,-0.943318 3.245286,-1.720541 4.423828,-2.201172 1.459354,-0.558231 3.080173,-0.667894 4.103516,-0.945312 2.701431,-0.315732 3.700627,-0.129378 5.783203,0.01758 1.686818,0.118824 2.855771,0.398322 4.630859,0.597656 1.308036,0.174114 3.412511,0.793077 3.904297,0.953125 1.54326,0.471417 3.682304,1.386784 5.00586,2.189453 1.431224,0.956414 2.94151,2.300155 3.75,3.289063 0.918097,1.177087 2.456779,2.982195 3.933593,5.255859 l 0.835938,1.412109 c 1.064083,1.604854 1.355099,3.835594 2.021484,5.371094 0.854564,1.899731 0.750234,3.559189 1.505859,4.728516 0.546108,0.844864 1.704286,1.424243 2.957032,1.125 1.253232,-0.299243 1.193857,-2.435582 1.123047,-3.017578 L 72.898438,38.488283 C 72.55409,36.578852 72.475194,35.916665 71.335938,33.632814 70.315989,31.588554 69.114668,29.36832 68.09375,27.876955 67.4521,26.973406 66.446144,25.507136 65.919922,24.83008 65.379636,24.13508 63.98379,22.753756 63.320312,22.226564 61.917702,21.111558 57.946808,18.786931 55.5,18.039064 54.285568,17.667557 51.956235,16.871707 49.675781,16.529299 47.880324,16.139847 46.557072,16.089906 45.539062,16.027346 44.034604,15.890573 42.524529,15.782817 41.027344,15.796877 Z" /><path
   id="path23"
   style="display:inline;fill:#4365a2;fill-opacity:1;stroke-width:0.1"
   d="m 44.707031,54.474609 4.84375,1.566407 c 0.02002,-0.01799 0.03951,-0.03508 0.05859,-0.05273 1.076207,-0.79491 1.794273,-1.850606 2.203125,-2.71875 0.442802,-0.940409 0.663897,-1.635183 0.710938,-2.345703 0.572296,-4.204436 -0.215835,-7.32712 -1.587891,-10.134766 -0.645045,-1.083482 -1.800262,-2.39251 -2.949219,-3.103515 -1.359446,-0.857474 -1.832017,-0.97471 -3.488281,-1.566406 -0.967568,-0.324463 -2.430743,-0.475411 -3.667969,-0.59375 -1.525315,-0.08924 -3.211595,0.09719 -4.173828,0.605468 -1.091243,0.494211 -2.209575,1.557808 -3.089844,2.451172 -0.6756,0.915673 -1.095551,1.719554 -1.433594,2.775391 -0.169748,0.931194 -0.341194,1.203043 -0.396484,1.839844 -0.08197,0.944288 0.134991,1.888116 0.240234,2.382812 0.08875,0.416612 0.262589,0.888119 0.607422,1.527344 0.280813,0.520402 0.693378,1.243411 1.056641,1.568359 0.505366,0.451531 1.222899,1.122003 1.691406,1.400391 0.698395,0.523311 3.875662,1.1353 5.126953,0.925781 1.398731,-0.104274 2.708424,-0.268544 2.914063,-1.636719 0.294878,-0.70955 -0.01673,-1.726753 -0.828125,-2.1875 -0.546591,-0.251713 -2.188322,0.176223 -3.607422,-0.11914 -2.068026,0.109124 -2.600652,-1.359437 -3.042969,-2.738282 -0.488877,-1.523859 0.736626,-2.997481 1.357422,-3.707031 0.715855,-0.73186 1.894802,-1.372402 3.304688,-1.205078 0.742044,0.08778 2.492303,0.426299 3.230468,0.791016 1.318706,0.650381 2.476794,1.468081 3.015625,2.30664 0.532042,0.82789 1.022944,2.170936 1.310547,3.330079 0.287603,1.159141 0.08377,1.958272 0.123047,3.367187 0.08439,1.029163 -0.389567,2.69035 -0.666016,3.039063 -0.523795,0.660564 -1.677734,1.564453 -1.677734,1.564453 -0.386775,0.285779 -0.76801,0.484142 -1.185547,0.667968 z" /><path
   id="path3-5"
   style="display:inline;fill:url(#linearGradient5);stroke-width:0.9"
   d="m 22.8474,63.2172 -0.1737,-1.7874 c 1.4076,-0.2277 3.1761,-0.5625 5.1138,-1.0377 2.5119,-0.9936 4.7295,-2.6802 6.4782,-4.9689 2.8251,-3.6963 4.0086,-8.4024 3.0879,-12.2805 l 1.7514,-0.4149 c 1.0413,4.3893 -0.2646,9.6723 -3.4092,13.7871 -0.5436,0.7119 -1.1277,1.3707 -1.7487,1.9764 6.597,-2.5227 12.9501,-6.8229 12.9501,-14.031 0,-2.9034 -1.7415,-4.5054 -3.7584,-6.3594 -2.1699,-1.9962 -4.6305,-4.2588 -4.6305,-8.442 0,-7.344 7.6734,-12.3552 8.001,-12.5649 l 0.9729,1.5138 c -0.072,0.0468 -7.1739,4.6971 -7.1739,11.0511 0,3.3939 1.9665,5.2029 4.0491,7.1172 2.133,1.9629 4.3389,3.9915 4.3389,7.6851 0,10.6164 -11.7252,15.4899 -20.3166,17.6346 -1.7334,0.6759 -3.5928,1.0575 -5.5323,1.1214 z M 46.3167,38.4474 44.7786,37.5132 c 2.0853,-3.4335 7.7607,-6.0246 10.008,-6.9453 -2.34,-0.6183 -4.0338,-2.1906 -4.797,-3.0195 -1.6857,0.6741 -6.6699,2.898 -8.6256,6.3234 L 39.8016,32.979 c 2.6964,-4.7223 9.8622,-7.2423 10.1664,-7.3476 l 1.0107,0.3069 c 0.027,0.036 2.9079,3.7431 6.8967,2.9808 1.9197,-0.3672 3.8043,-0.8991 5.3298,-1.3869 l 3.4767,-1.2402 0.6444,1.6803 c -0.1026,0.0423 -1.5426,0.6309 -3.6198,1.2933 l -7.3863,2.6352 c -0.0729,0.0261 -7.7616,2.8566 -10.0035,6.5466 z m -9.441,21.105 -0.9927,-1.5021 c 0.0594,-0.0396 5.9004,-3.9636 5.9004,-8.6985 0,-2.6487 -2.043,-4.6917 -4.2048,-6.8553 -2.4768,-2.4777 -5.0391,-5.0409 -5.0391,-8.8641 0,-12.7143 18.0702,-17.8686 18.8388,-18.0828 l 2.7684,-0.7668 -1.8342,2.2365 c -0.0279,0.0342 -2.9583,3.96 -2.9583,10.26 h -1.8 c 0,-4.5 1.0746,-7.2864 2.0115,-9.1872 -4.752,1.7946 -15.2253,6.7383 -15.2253,15.5538 0,3.078 2.1915,5.2641 4.5117,7.5843 2.3265,2.3274 4.7322,4.7304 4.7322,8.1252 0,5.7069 -6.435,10.0161 -6.7086,10.197 z" /><path
   id="path11"
   style="display:inline;fill:#4365a2;fill-opacity:1;stroke-width:0.1"
   d="m 18.962891,34.451172 -3.730469,-1.832031 c -0.03205,0.06339 -0.06573,0.126713 -0.09766,0.189453 -0.617885,1.122767 -0.735629,1.950165 -1.208985,2.955078 -0.156169,0.610126 -0.74363,1.981604 -0.8125,2.4375 -0.07032,1.065538 -0.36626,1.557302 -0.589843,2.736328 -0.254629,1.396791 -0.0591,2.607324 -0.205079,3.890625 0.09991,0.574721 0.21223,1.61334 0.1875,2.054687 0.214853,1.874998 0.765879,3.077591 1.091797,4.945313 0.308943,0.800244 0.833721,2.672109 1.587891,4.220703 0.283723,0.915674 1.593284,3.006669 1.957031,3.703125 1.660144,2.254264 4.229949,4.671808 5.378906,5.382813 0.284693,0.275963 1.962859,1.423596 2.462891,1.677734 0.76872,0.413703 2.600647,1.182091 3.546875,1.537109 1.714948,0.526706 4.619238,1.342667 7.517578,1.6875 2.897855,0.344348 5.553142,0.115573 8.136719,-0.123047 1.333741,-0.275963 2.570616,-0.690611 3.552734,-1.005859 2.411888,-0.942834 3.720638,-1.598262 5.441407,-2.625 1.266809,-0.756595 1.970886,-1.155514 2.791015,-1.839844 1.072328,-0.870569 2.000053,-1.672048 2.873047,-2.707031 1.802362,-2.049454 2.823576,-4.166852 3.449219,-5.998047 L 58.24609,53.751953 c -0.07296,0.240013 -0.176297,0.530087 -0.326172,0.935547 -0.465112,1.017523 -0.738577,1.840734 -1.214844,2.621094 -0.442802,0.561141 -0.897446,1.194703 -1.183594,1.609375 -0.514097,0.73574 -0.925005,1.078239 -1.603515,1.671875 -0.470447,0.489846 -0.948249,0.686551 -1.742188,1.195312 -0.410792,0.341923 -1.729486,1.119437 -2.59375,1.595703 0.02473,-0.02716 -2.127847,0.946045 -3.990234,1.63086 -1.720768,0.633406 -4.557878,0.913307 -6.615235,0.873047 -1.955505,-0.03783 -3.985552,-0.223564 -5.529296,-0.501954 -0.905489,-0.240071 -4.035094,-1.078643 -5.035157,-1.58789 -3.548235,-1.596608 -6.733349,-3.81098 -9.105468,-8.921875 -0.521856,-0.706155 -1.365001,-3.747654 -1.546875,-4.626953 -0.212428,-1.272632 -0.722716,-2.350381 -0.728516,-3.90625 -0.158599,-1.728043 0.0256,-2.165197 -0.01563,-4.279297 -0.09166,-1.179997 0.453103,-3.609409 0.738281,-4.912109 0.256545,-0.788408 0.745298,-1.778589 1.208985,-2.697266 z" /><path
   id="path8"
   style="display:inline;fill:#4365a2;fill-opacity:1;stroke-width:0.1"
   d="m 27.947266,38.865234 -3.642578,-1.789062 c -0.136489,0.29254 -0.287208,0.60432 -0.458985,0.927734 -0.998124,2.660691 -1.111063,6.806498 -0.927734,7.794922 0.162474,0.881723 0.282891,2.16942 0.52539,2.744141 0.178478,0.422918 0.396214,2.43735 1.509766,4.578125 0.223583,0.302638 0.985737,1.782376 1.763672,2.597656 1.400185,1.483119 3.241098,2.700475 4.882812,3.390625 2.405098,1.060688 6.444077,1.323178 7.919922,0.953125 1.499124,-0.223583 2.413347,-0.241474 3.605469,-0.712891 1.099972,-0.305547 1.942401,-0.695174 2.666016,-1.035156 0.824494,-0.414188 1.35691,-0.663402 2.146484,-1.142578 0.556291,-0.289058 1.238288,-0.782502 1.671875,-1.183594 1.076207,-0.79491 1.794273,-1.850606 2.203125,-2.71875 0.120895,-0.256754 0.22368,-0.49533 0.3125,-0.720703 l -4.146484,-1.33789 c -0.132312,0.484856 -0.288594,0.880374 -0.408204,1.03125 -0.523794,0.660564 -1.677734,1.564453 -1.677734,1.564453 -0.83953,0.620311 -1.656111,0.822143 -2.861328,1.380859 -1.342955,0.583451 -1.583533,0.591474 -2.886719,0.904297 -0.64262,0.154229 -1.873382,0.228712 -2.355469,0.257812 -0.979692,-0.0019 -2.750763,-0.09961 -3.800781,-0.675781 -1.170782,-0.336103 -2.735948,-1.202273 -3.544922,-2.085937 -1.096577,-1.061657 -1.745954,-2.102557 -2.085937,-2.826172 -0.08293,-0.177509 -0.687388,-1.404405 -0.742188,-1.636719 -0.05481,-0.232798 -0.305855,-1.391693 -0.40625,-1.765625 -0.100879,-0.373448 -0.355468,-2.081024 -0.355468,-3.013672 -0.08536,-1.223647 0.09658,-3.123894 0.658203,-4.474609 0.130766,-0.342833 0.277855,-0.679147 0.435547,-1.00586 z" /><path
   id="path23-6"
   style="display:inline;fill:#4365a2;fill-opacity:1;stroke-width:0.1"
   d="M 36.130859 42.216797 L 32.8125 39.748047 C 32.539305 40.247607 32.323105 40.763066 32.132812 41.357422 C 31.963065 42.288616 31.791618 42.560465 31.736328 43.197266 C 31.654358 44.141554 31.87132 45.085382 31.976562 45.580078 C 32.065312 45.99669 32.239151 46.468197 32.583984 47.107422 C 32.864797 47.627824 33.277362 48.350833 33.640625 48.675781 C 34.145991 49.127312 34.863524 49.797784 35.332031 50.076172 C 36.030426 50.599483 39.207693 51.211472 40.458984 51.001953 C 41.857715 50.897679 43.167408 50.733409 43.373047 49.365234 C 43.667925 48.655684 43.356317 47.638481 42.544922 47.177734 C 41.998331 46.926021 40.3566 47.353957 38.9375 47.058594 C 36.869474 47.167718 36.336848 45.699157 35.894531 44.320312 C 35.656936 43.579715 35.824803 42.85172 36.130859 42.216797 z " /></svg>
